<svg xmlns="http://www.w3.org/2000/svg" viewBox="0 0 64 64"><path d="M35.38.18l-.74 7a24.83 24.83 0 0 1 9.84 3.2L48 4.28A31.78 31.78 0 0 0 35.38.18zm-6.75 0A31.78 31.78 0 0 0 16 4.28l3.49 6.06a24.83 24.83 0 0 1 9.84-3.2l-.74-7zm24.8 8.06l-4.69 5.2a25.06 25.06 0 0 1 6.08 8.37l6.4-2.81a32.08 32.08 0 0 0-7.79-10.76zm-42.87 0A32.08 32.08 0 0 0 2.78 19l6.39 2.85a25.06 25.06 0 0 1 6.08-8.37l-4.69-5.2zM32 20a12 12 0 1 0 12 12 12 12 0 0 0-12-12zm0 17a5 5 0 1 1 5-5 5 5 0 0 1-5 5zm31.31-11.62l-6.85 1.45a25.09 25.09 0 0 1 0 10.35l6.85 1.45a32.12 32.12 0 0 0 0-13.25zm-62.62 0a32.12 32.12 0 0 0 0 13.25l6.85-1.45a25.09 25.09 0 0 1 0-10.35L.69 25.38zm54.14 16.81a25.06 25.06 0 0 1-6.08 8.37l4.69 5.2A32.08 32.08 0 0 0 61.22 45l-6.39-2.85zm-45.66 0L2.78 45a32.08 32.08 0 0 0 7.79 10.72l4.69-5.2a25.06 25.06 0 0 1-6.08-8.37zm35.31 11.47a24.83 24.83 0 0 1-9.84 3.2l.74 7A31.78 31.78 0 0 0 48 59.72l-3.49-6.06zm-25 0L16 59.72a31.78 31.78 0 0 0 12.6 4.1l.74-7a24.83 24.83 0 0 1-9.84-3.2z" fill="#353d42"/><circle cx="32" cy="32" r="5" fill="none"/></svg>
