<svg xmlns="http://www.w3.org/2000/svg" viewBox="0 0 64 64"><path d="M63.26 46.83l-.4-1.67-15.48-8.9-1.64.49a14.05 14.05 0 0 0-5.22 2.9 26.15 26.15 0 0 1-16-16.32 14.06 14.06 0 0 0 3-5.17l.48-1.62L19.43.89 17.77.46A13.89 13.89 0 0 0 .35 13.79v.99A48.79 48.79 0 0 0 48.6 64h1a13.89 13.89 0 0 0 13.66-17.17zM50.1 56H49A41 41 0 0 1 8 15v-1.1A6 6 0 0 1 13.91 8l5.16 9.17a6 6 0 0 1-1.56 1.68l-2.17 1.57L16 23a33.83 33.83 0 0 0 25 25l2.61.63 1.57-2.17a6 6 0 0 1 1.68-1.56L56 50.09A6 6 0 0 1 50.1 56z" fill="#353d42"/></svg>